<svg width="149" height="35" viewBox="0 0 149 35" fill="none" xmlns="http://www.w3.org/2000/svg">
<mask id="mask0_1_3718" style="mask-type:luminance" maskUnits="userSpaceOnUse" x="0" y="0" width="29" height="35">
<path fill-rule="evenodd" clip-rule="evenodd" d="M0.882812 0.900391H28.8388V34.194H0.882812V0.900391Z" fill="white"/>
</mask>
<g mask="url(#mask0_1_3718)">
<path fill-rule="evenodd" clip-rule="evenodd" d="M27.9666 20.4452L15.3148 27.7463C15.1203 27.8585 14.8782 27.8591 14.6843 27.7463L6.47619 23.0172L6.46643 23.023L2.04397 20.475C1.85005 20.3628 1.72956 20.1539 1.72956 19.9301V15.2783C1.72956 15.2366 1.7548 15.2159 1.77087 15.2074C1.78406 15.1988 1.81333 15.1873 1.85005 15.2062L5.90359 17.5459L5.8967 17.5493L14.4008 22.4501C14.7703 22.6624 15.2287 22.6624 15.5977 22.4501L23.5223 17.8835L27.9545 20.4372C27.9585 20.4401 27.9625 20.4429 27.9666 20.4452ZM2.01453 8.85083L14.6864 1.5486C14.8803 1.43643 15.1224 1.43643 15.3169 1.5486L27.9566 8.83252C27.9641 8.83653 27.971 8.84168 27.9784 8.84568L15.3169 16.1525C15.1224 16.2647 14.8803 16.2652 14.6864 16.1525L6.4783 11.4228L2.01453 8.85083ZM28.8053 9.13435C28.7365 8.80584 28.5368 8.51396 28.2396 8.34283L15.5999 1.05949C15.231 0.846584 14.7714 0.847156 14.4031 1.05949L0.88208 8.85048L5.91272 11.7493L1.76336 14.1399C1.39501 14.3528 1.16494 14.7488 1.16494 15.1735V15.2009V15.2794V19.9312C1.16494 20.3558 1.39444 20.7525 1.76336 20.9648L5.90296 23.3502L0.88208 26.2433L14.4031 34.0337C14.5878 34.1402 14.7949 34.194 15.0015 34.194C15.2086 34.194 15.4157 34.1402 15.5999 34.0343L28.2396 26.7509C28.6085 26.5386 28.838 26.1426 28.838 25.7173V21.089V20.9831V20.9081C28.838 20.8435 28.8237 20.7828 28.803 20.725C28.7307 20.4033 28.5316 20.1183 28.2396 19.9495L24.0799 17.552L28.2396 15.1552C28.6091 14.9423 28.838 14.5462 28.838 14.1216V9.48175V9.37644V9.31292C28.838 9.25053 28.8243 9.19101 28.8053 9.13435Z" fill="#1F2787"/>
</g>
<path fill-rule="evenodd" clip-rule="evenodd" d="M51.7336 19.5471C51.7336 20.2363 51.629 20.854 51.4211 21.4007C51.2131 21.9468 50.9278 22.4129 50.5653 22.7995C50.2028 23.185 49.7749 23.4791 49.2817 23.6812C48.7873 23.8833 48.2498 23.9838 47.6673 23.9838C47.1082 23.9838 46.6326 23.898 46.2405 23.7255C45.8478 23.5534 45.5154 23.3127 45.2415 23.0039H45.1699L45.0097 23.7879H43.1016V11.0475H45.7228V15.823C45.9961 15.5971 46.3178 15.4103 46.686 15.2621C47.0548 15.1134 47.465 15.039 47.9168 15.039C49.1055 15.039 50.0391 15.4341 50.717 16.2238C51.3944 17.014 51.7336 18.1216 51.7336 19.5471ZM49.0198 19.6163C49.0198 18.7494 48.8539 18.1022 48.5209 17.6747C48.1879 17.2467 47.718 17.0332 47.1111 17.0332C46.8259 17.0332 46.556 17.1076 46.2997 17.2557C46.044 17.4045 45.857 17.5498 45.7383 17.6923V21.5413C45.869 21.6958 46.0411 21.8201 46.2554 21.9155C46.469 22.0103 46.6958 22.058 46.9333 22.058C47.2066 22.058 47.468 22.0103 47.718 21.9155C47.9675 21.8201 48.1908 21.6719 48.3868 21.4698C48.5829 21.2677 48.7374 21.0122 48.8505 20.704C48.9636 20.3946 49.0198 20.0324 49.0198 19.6163ZM58.1272 15.2334H60.7666V23.7864H58.8233L58.5556 22.8599H58.484C58.3653 22.9786 58.2227 23.1035 58.0562 23.2346C57.8897 23.3652 57.6902 23.4867 57.4584 23.5997C57.2265 23.7121 56.9617 23.8046 56.6651 23.8756C56.3674 23.9471 56.0287 23.9823 55.6486 23.9823C54.7206 23.9823 53.995 23.7274 53.4728 23.2165C52.9495 22.7055 52.6875 21.951 52.6875 20.9536V15.2334H55.3269V20.7396C55.3269 21.179 55.4372 21.5031 55.6571 21.7109C55.877 21.9187 56.1594 22.0226 56.5043 22.0226C56.9203 22.0226 57.2618 21.9363 57.53 21.7643C57.7976 21.5917 57.9965 21.4106 58.1272 21.221V15.2334ZM62.3672 23.7864H65.0066V15.2334H62.3672V23.7864ZM63.684 13.5583C63.2323 13.5583 62.8873 13.4305 62.6498 13.1751C62.4117 12.9196 62.293 12.6142 62.293 12.2576C62.293 11.9011 62.4151 11.5951 62.6589 11.3397C62.9021 11.0848 63.2442 10.957 63.684 10.957C64.1244 10.957 64.4659 11.0814 64.7097 11.3311C64.9534 11.5804 65.0756 11.8892 65.0756 12.2576C65.0756 12.6261 64.9568 12.9343 64.7188 13.1841C64.4812 13.4334 64.1357 13.5583 63.684 13.5583ZM66.6484 23.7863H69.2526V11.0459H66.6484V23.7863ZM75.9617 11.0458H78.6012V23.7862H76.7817L76.5141 22.8597H76.4248C76.2589 23.1208 75.9703 23.3735 75.5606 23.617C75.1497 23.8606 74.6122 23.982 73.9462 23.982C73.3871 23.982 72.87 23.8782 72.3944 23.6704C71.9188 23.4626 71.5085 23.1657 71.1636 22.7797C70.8192 22.3936 70.5482 21.9241 70.3527 21.3717C70.1561 20.8194 70.0578 20.1989 70.0578 19.5102C70.0578 18.833 70.147 18.2181 70.3254 17.6658C70.5039 17.1134 70.7624 16.6439 71.1016 16.2579C71.4403 15.8718 71.8591 15.5721 72.3586 15.358C72.858 15.1446 73.4229 15.0373 74.053 15.0373C74.4457 15.0373 74.8167 15.0941 75.1679 15.2065C75.5185 15.3194 75.7827 15.4591 75.9617 15.6254V11.0458ZM75.9644 17.5494C75.857 17.4069 75.6905 17.2701 75.4649 17.1396C75.2388 17.009 74.9893 16.9431 74.7154 16.9431C74.4421 16.9431 74.1864 16.988 73.9489 17.0771C73.7108 17.1662 73.5 17.3116 73.3159 17.5137C73.1312 17.7158 72.9852 17.9741 72.8783 18.2892C72.7715 18.6037 72.7181 18.9925 72.7181 19.4558C72.7181 20.3471 72.8931 21.0034 73.2443 21.4252C73.5954 21.8464 74.05 22.0576 74.6086 22.0576C74.953 22.0576 75.2416 21.9685 75.4735 21.7902C75.7059 21.6119 75.8689 21.4218 75.9644 21.2202V17.5494ZM80.0113 23.7863H82.6513V15.2333H80.0113V23.7863ZM81.3324 13.5583C80.8806 13.5583 80.5357 13.4305 80.2982 13.1751C80.0601 12.9196 79.9413 12.6142 79.9413 12.2576C79.9413 11.9011 80.0635 11.5951 80.3067 11.3397C80.5505 11.0848 80.8926 10.957 81.3324 10.957C81.7722 10.957 82.1143 11.0814 82.358 11.3311C82.6012 11.5804 82.7234 11.8892 82.7234 12.2576C82.7234 12.6261 82.6047 12.9343 82.3666 13.1841C82.129 13.4334 81.7841 13.5583 81.3324 13.5583ZM86.8861 23.786H84.2466V15.2329H86.2974L86.6008 16.3025C86.981 15.9102 87.4094 15.6014 87.885 15.376C88.3606 15.15 88.8777 15.0371 89.4369 15.0371C90.4 15.0371 91.137 15.2988 91.6479 15.8211C92.1598 16.3439 92.415 17.1098 92.415 18.1197V23.786H89.7755V18.3871C89.7755 17.9715 89.6772 17.6417 89.4812 17.3982C89.2852 17.1546 88.9965 17.0331 88.6163 17.0331C88.3305 17.0331 88.0305 17.116 87.7151 17.2823C87.4009 17.4487 87.1236 17.6684 86.8861 17.9414V23.786ZM93.6382 18.1731C93.6382 17.7099 93.7337 17.2852 93.9234 16.8992C94.1138 16.5131 94.3786 16.1805 94.7178 15.9017C95.0559 15.6224 95.4543 15.4084 95.9123 15.2602C96.3702 15.1115 96.8726 15.0371 97.4192 15.0371C97.6215 15.0371 97.8533 15.0553 98.1147 15.0905C98.3767 15.1262 98.6142 15.1739 98.8284 15.233H102.467V16.8549H101.646L100.647 16.6942C100.779 16.8725 100.888 17.0979 100.977 17.3715C101.067 17.6446 101.112 17.9176 101.112 18.1913C101.112 18.6426 101.028 19.0525 100.862 19.4204C100.695 19.7888 100.451 20.1096 100.13 20.3832C99.8092 20.6562 99.4171 20.8669 98.9534 21.0156C98.4892 21.1638 97.9664 21.2381 97.384 21.2381C97.2527 21.2381 97.1283 21.2325 97.0095 21.2205C96.8902 21.2086 96.7714 21.1905 96.6527 21.1666C96.5691 21.2143 96.4924 21.2796 96.4208 21.363C96.3492 21.4459 96.3134 21.5532 96.3134 21.6838C96.3134 21.8382 96.3702 21.9625 96.4833 22.0579C96.5958 22.1527 96.8254 22.2004 97.1698 22.2004H98.9711C99.4347 22.2004 99.8626 22.2481 100.255 22.3429C100.647 22.4377 100.984 22.5921 101.263 22.8061C101.542 23.0202 101.759 23.2961 101.914 23.635C102.068 23.9733 102.146 24.3804 102.146 24.8556C102.146 25.3182 102.033 25.7463 101.807 26.138C101.581 26.5303 101.263 26.8686 100.852 27.1536C100.443 27.4392 99.9433 27.6617 99.3546 27.8224C98.7665 27.9825 98.1147 28.0625 97.4016 28.0625C96.0697 28.0625 95.0235 27.8309 94.2627 27.3677C93.5018 26.9044 93.1211 26.2453 93.1211 25.3898C93.1211 25.0094 93.2489 24.6745 93.5047 24.3832C93.7604 24.092 94.12 23.8632 94.5837 23.6969C94.4405 23.6021 94.2803 23.4386 94.1024 23.2069C93.9234 22.9753 93.8348 22.6875 93.8348 22.3429C93.8348 21.9387 93.9564 21.5913 94.2002 21.3006C94.4439 21.0094 94.7502 20.7749 95.119 20.5966C94.9639 20.5138 94.8008 20.3974 94.628 20.2492C94.4559 20.101 94.2951 19.9256 94.1468 19.7235C93.9979 19.5214 93.8763 19.2932 93.7808 19.0372C93.6859 18.7823 93.6382 18.4939 93.6382 18.1731ZM96.0464 24.1592C95.9038 24.2307 95.7794 24.3374 95.672 24.4799C95.5651 24.6224 95.5117 24.8007 95.5117 25.0147C95.5117 25.3116 95.6515 25.5671 95.9305 25.7811C96.2106 25.9946 96.7243 26.1019 97.4733 26.1019C98.1756 26.1019 98.6955 25.9861 99.0342 25.7539C99.3729 25.5228 99.5428 25.2526 99.5428 24.9437C99.5428 24.6701 99.4473 24.4714 99.2569 24.3465C99.0672 24.2216 98.7455 24.1592 98.2944 24.1592H96.0464ZM98.5406 18.1374C98.5406 17.7213 98.431 17.4039 98.2105 17.1837C97.9906 16.964 97.7144 16.8544 97.3814 16.8544C97.0365 16.8544 96.757 16.964 96.5427 17.1837C96.3285 17.4039 96.2223 17.7213 96.2223 18.1374C96.2223 18.553 96.3319 18.8709 96.5518 19.0906C96.7717 19.3103 97.0485 19.4199 97.3814 19.4199C97.7258 19.4199 98.0059 19.3103 98.2196 19.0906C98.4338 18.8709 98.5406 18.553 98.5406 18.1374ZM112.079 17.4249C111.759 17.2705 111.419 17.149 111.063 17.0598C110.706 16.9707 110.361 16.9259 110.028 16.9259C109.719 16.9259 109.469 16.9792 109.28 17.0865C109.09 17.1933 108.994 17.342 108.994 17.5322C108.994 17.7337 109.086 17.9029 109.27 18.0397C109.455 18.1759 109.82 18.3218 110.368 18.4763L110.902 18.6364C111.616 18.8504 112.157 19.1621 112.525 19.5719C112.894 19.9818 113.078 20.5075 113.078 21.149C113.078 21.5765 112.99 21.9659 112.811 22.3162C112.633 22.6665 112.38 22.9662 112.052 23.216C111.726 23.4653 111.334 23.6554 110.876 23.786C110.418 23.9171 109.91 23.9819 109.351 23.9819C108.744 23.9819 108.207 23.9291 107.737 23.8218C107.267 23.715 106.83 23.5606 106.426 23.3585L106.996 21.4516C107.341 21.6299 107.701 21.7758 108.075 21.8882C108.45 22.0011 108.833 22.0579 109.226 22.0579C109.678 22.0579 109.995 21.9926 110.18 21.8621C110.365 21.7315 110.457 21.5765 110.457 21.3988C110.457 21.2915 110.436 21.1995 110.394 21.1223C110.352 21.0451 110.278 20.9708 110.171 20.8998C110.064 20.8283 109.913 20.7601 109.716 20.6943C109.52 20.6296 109.268 20.5495 108.958 20.4541L108.406 20.2935C107.704 20.0681 107.193 19.7564 106.871 19.3579C106.551 18.9605 106.391 18.4229 106.391 17.7456C106.391 17.3539 106.467 16.994 106.622 16.6676C106.776 16.3406 107 16.0561 107.291 15.812C107.582 15.569 107.938 15.3789 108.361 15.2421C108.783 15.1058 109.268 15.0371 109.815 15.0371C110.361 15.0371 110.869 15.0876 111.339 15.1887C111.809 15.2897 112.234 15.4294 112.615 15.6071L112.079 17.4249ZM119.349 17.1227H117.155V20.7401C117.155 21.1318 117.242 21.4055 117.415 21.5599C117.587 21.7143 117.828 21.7915 118.136 21.7915C118.374 21.7915 118.612 21.7677 118.85 21.7205C119.087 21.6729 119.273 21.6076 119.403 21.5241L119.795 23.3237C119.593 23.431 119.287 23.5349 118.877 23.636C118.467 23.7365 118.029 23.787 117.566 23.787C116.46 23.787 115.678 23.5735 115.221 23.1455C114.763 22.718 114.534 22.0708 114.534 21.2034V17.1227H113.196V15.234H114.534V12.6327H117.155V15.234H119.349V17.1227ZM120.46 15.9817C120.948 15.6967 121.497 15.468 122.11 15.2954C122.722 15.1234 123.349 15.0371 123.991 15.0371C125.049 15.0371 125.899 15.2925 126.541 15.8035C127.184 16.3144 127.505 17.1279 127.505 18.2446V23.786H125.49L125.258 22.931H125.187C124.949 23.2398 124.619 23.4925 124.196 23.6883C123.774 23.8842 123.278 23.9818 122.707 23.9818C122.22 23.9818 121.795 23.9109 121.432 23.7684C121.069 23.6259 120.769 23.4357 120.531 23.1984C120.294 22.9605 120.112 22.6784 119.987 22.3519C119.862 22.0249 119.8 21.6775 119.8 21.3091C119.8 20.8106 119.91 20.3831 120.13 20.0266C120.35 19.6701 120.647 19.3789 121.021 19.1535C121.397 18.9275 121.836 18.7612 122.341 18.6545C122.847 18.5478 123.385 18.4938 123.956 18.4938H124.847V18.0306C124.847 17.7098 124.735 17.4634 124.508 17.2914C124.283 17.1188 123.962 17.0331 123.546 17.0331C123.189 17.0331 122.838 17.0865 122.493 17.1932C122.148 17.2999 121.768 17.4725 121.352 17.7098L120.46 15.9817ZM124.865 20.0966L124.277 20.1142C123.944 20.1261 123.664 20.1619 123.438 20.2215C123.212 20.2805 123.031 20.3549 122.894 20.444C122.757 20.5332 122.66 20.6405 122.6 20.7648C122.54 20.8897 122.511 21.0174 122.511 21.148C122.511 21.5164 122.621 21.7685 122.841 21.9053C123.061 22.0415 123.314 22.1102 123.599 22.1102C123.885 22.1102 124.143 22.0274 124.375 21.861C124.606 21.6947 124.77 21.5102 124.865 21.3081V20.0966ZM133.432 22.0853C133.813 22.0853 134.149 22.0347 134.44 21.9337C134.732 21.8326 134.955 21.7407 135.11 21.6572L135.591 23.4392C135.389 23.5585 135.05 23.6828 134.574 23.8133C134.098 23.9445 133.576 24.0092 133.005 24.0092C132.339 24.0092 131.724 23.9144 131.158 23.7242C130.594 23.5346 130.107 23.2519 129.696 22.8783C129.287 22.5042 128.962 22.0404 128.724 21.4886C128.487 20.9357 128.367 20.297 128.367 19.5726C128.367 18.9078 128.481 18.2987 128.706 17.7463C128.933 17.1939 129.254 16.7187 129.67 16.3208C130.086 15.9228 130.579 15.614 131.15 15.3943C131.721 15.1746 132.357 15.0645 133.058 15.0645C133.427 15.0645 133.828 15.1059 134.262 15.1893C134.696 15.2722 135.139 15.4329 135.591 15.6702L135.038 17.4698C134.801 17.3273 134.536 17.2087 134.244 17.1139C133.953 17.0185 133.659 16.9708 133.361 16.9708C132.672 16.9708 132.113 17.182 131.685 17.6038C131.257 18.0256 131.043 18.658 131.043 19.5016C131.043 19.9762 131.114 20.3776 131.257 20.704C131.399 21.031 131.584 21.2984 131.81 21.5062C132.036 21.714 132.291 21.8621 132.577 21.9513C132.862 22.0404 133.147 22.0853 133.432 22.0853ZM139.101 21.0067V23.7862H136.48V11.0458H139.101V18.4765L141.777 15.2332H144.969L141.741 18.833L145.112 23.7862H142.008L139.743 20.3476L139.101 21.0067Z" fill="#1F2787"/>
<path fill-rule="evenodd" clip-rule="evenodd" d="M146.523 10.9775V11.1879H145.991V12.6769H145.743V11.1879H145.223V10.9775H146.523ZM146.741 10.9775H147.065L147.421 12.0619C147.439 12.1141 147.456 12.1649 147.472 12.2143C147.488 12.2638 147.503 12.3137 147.518 12.364H147.523C147.538 12.3137 147.552 12.2651 147.568 12.2183C147.583 12.1716 147.601 12.1194 147.62 12.0619L147.968 10.9775H148.292L148.44 12.6769H148.192L148.122 11.776C148.115 11.6879 148.109 11.6002 148.106 11.513C148.102 11.4258 148.099 11.3372 148.095 11.2473H148.09C148.065 11.3354 148.039 11.4235 148.013 11.5116C147.987 11.5997 147.959 11.6879 147.931 11.776L147.631 12.6769H147.405L147.105 11.7733C147.075 11.6816 147.047 11.5939 147.022 11.5103C146.996 11.4267 146.971 11.339 146.946 11.2473H146.941C146.937 11.3354 146.932 11.4235 146.926 11.5116C146.919 11.5997 146.913 11.6879 146.906 11.776L146.841 12.6769H146.598L146.741 10.9775Z" fill="#1F2787"/>
</svg>
